<?xml version="1.0" encoding="utf-8"?>
<!-- Generator: Adobe Illustrator 25.1.0, SVG Export Plug-In . SVG Version: 6.00 Build 0)  -->
<svg version="1.1" xmlns="http://www.w3.org/2000/svg" xmlns:xlink="http://www.w3.org/1999/xlink" x="0px" y="0px"
	 viewBox="0 0 960 560" style="enable-background:new 0 0 960 560;" xml:space="preserve">
<style type="text/css">
	.st0{fill:#AF9F8C;}
	.st1{fill:#D4C8BE;}
	.st2{fill:#C7C7BB;}
	.st3{fill:#7F867B;}
	.st4{fill:#FFFFFF;}
</style>
<g id="Vrstva_1">
	<g>
		<path class="st0" d="M155.96,558C71.06,558,2,488.94,2,404.04V155.96C2,141,5.25,88.93,47.09,47.09C76.17,18.01,114.83,2,155.96,2
			h648.09C888.94,2,958,71.06,958,155.96v248.09C958,488.94,888.94,558,804.04,558H155.96z"/>
		<path d="M804.04,4c40.59,0,78.75,15.81,107.45,44.51S956,115.37,956,155.96v248.09c0,40.59-15.81,78.75-44.51,107.45
			S844.63,556,804.04,556H155.96c-40.59,0-78.75-15.81-107.45-44.51S4,444.63,4,404.04v-58.01V155.96c0-12.98,2.11-27.62,5.95-41.21
			c7.22-25.59,20.2-47.88,38.56-66.24C77.21,19.81,115.37,4,155.96,4H804.04 M804.04,0H155.96C112.89,0,73.9,17.46,45.68,45.68
			C1.04,90.32,0,145.57,0,155.96c0,63.36,0,126.72,0,190.08c0,19.34,0,38.67,0,58.01C0,490.18,69.82,560,155.96,560h648.09
			C890.18,560,960,490.18,960,404.04V155.96C960,69.82,890.18,0,804.04,0L804.04,0z"/>
	</g>
	<path class="st1" d="M955,177c0,0,8.87-65.02-34-116C884,17,837.78,4.5,799,5S152,5,152,5s-47.8-5.77-98,39C17,77,4,123,4,158
		c0,54.74,735.8,169.5,836.15,123S955,177,955,177z"/>
	<path class="st2" d="M224.11,298.64C142.72,290.78,4,332.23,4,332.23V159.5c0,0,75.5-62,201.5-64s289,63,359,49
		s123.45-26.31,195.22-20.65S944.5,160.01,956,175"/>
	<path class="st3" d="M956,336.79c0,0-23.5-12.29-124.5-23.29s-175,92-288,109c0,0-173.78-114.72-319.39-123.86
		c0,0,147.82-51.14,259.1-55.64s163.29-2.5,224.29-28.5s64-55,148-55s100.5,8.01,100.5,8.01V336.79z"/>
</g>
<g id="Vrstva_3">
</g>
<g id="Vrstva_2">
	<g>
		<g>
			<g>
				<g>
					<path d="M310.83,283.96h-21.25V121.4l68.1-1.02c11.6-0.17,20.31,2.39,26.11,7.68c5.8,5.29,8.7,13.4,8.7,24.32v36.61
						c0,6.83-1.28,12.67-3.84,17.54c-2.56,4.86-6.4,8.54-11.52,11.01c-5.12,2.48-11.61,3.71-19.46,3.71h-51.97l4.86-4.1
						L310.83,283.96z M310.58,134.46v72.7l-3.58-4.1h60.67c2.22,0,3.33-1.11,3.33-3.33v-57.86c0-2.22-1.11-3.33-3.33-3.33h-60.67
						L310.58,134.46z"/>
					<path d="M436.27,283.96h-20.22v-172.8h20.22V283.96z"/>
					<path d="M505.65,285.76h-16.64c-9.73,0-16.86-1.92-21.38-5.76c-4.52-3.84-6.78-10.62-6.78-20.35v-20.99
						c0-10.41,2.3-17.54,6.91-21.38c4.61-3.84,12.29-5.76,23.04-5.76h38.14v14.85h-45.57c-1.71,0-2.56,0.86-2.56,2.56v37.89
						c0,1.54,0.85,2.3,2.56,2.3h43.01v-91.39c0-1.7-0.77-2.56-2.3-2.56l-56.32,0.26v-16.9l48.64-0.26c10.75,0,18.52,2.01,23.3,6.02
						c4.78,4.01,7.17,11.39,7.17,22.14v97.54h-17.92l-2.56-14.85l1.54-6.91c0,8.02-1.66,13.95-4.99,17.79
						C519.6,283.84,513.84,285.76,505.65,285.76z"/>
					<path d="M635.95,317.5c1.54,0,2.3-0.77,2.3-2.3v-46.08l1.79-6.91c0,8.02-1.71,13.95-5.12,17.79
						c-3.42,3.84-9.22,5.76-17.41,5.76h-17.66c-9.73,0-16.9-1.92-21.5-5.76c-4.61-3.84-6.91-10.62-6.91-20.35V158.52h20.22v108.29
						c0,1.54,0.85,2.3,2.56,2.3h44.03V158.52h19.97l0.26,147.46c0,10.41-2.48,17.75-7.42,22.02c-4.95,4.26-13.06,6.4-24.32,6.4
						h-50.94v-16.9H635.95z"/>
				</g>
			</g>
		</g>
		<g>
			<g>
				<g>
					<path class="st4" d="M302.83,275.96h-21.25V113.4l68.1-1.02c11.6-0.17,20.31,2.39,26.11,7.68c5.8,5.29,8.7,13.4,8.7,24.32
						v36.61c0,6.83-1.28,12.67-3.84,17.54c-2.56,4.86-6.4,8.54-11.52,11.01c-5.12,2.48-11.61,3.71-19.46,3.71h-51.97l4.86-4.1
						L302.83,275.96z M302.58,126.46v72.7l-3.58-4.1h60.67c2.22,0,3.33-1.11,3.33-3.33v-57.86c0-2.22-1.11-3.33-3.33-3.33h-60.67
						L302.58,126.46z"/>
					<path class="st4" d="M428.27,275.96h-20.22v-172.8h20.22V275.96z"/>
					<path class="st4" d="M497.65,277.76h-16.64c-9.73,0-16.86-1.92-21.38-5.76c-4.52-3.84-6.78-10.62-6.78-20.35v-20.99
						c0-10.41,2.3-17.54,6.91-21.38c4.61-3.84,12.29-5.76,23.04-5.76h38.14v14.85h-45.57c-1.71,0-2.56,0.86-2.56,2.56v37.89
						c0,1.54,0.85,2.3,2.56,2.3h43.01v-91.39c0-1.7-0.77-2.56-2.3-2.56l-56.32,0.26v-16.9l48.64-0.26c10.75,0,18.52,2.01,23.3,6.02
						c4.78,4.01,7.17,11.39,7.17,22.14v97.54h-17.92l-2.56-14.85l1.54-6.91c0,8.02-1.66,13.95-4.99,17.79
						C511.6,275.84,505.84,277.76,497.65,277.76z"/>
					<path class="st4" d="M627.95,309.5c1.54,0,2.3-0.77,2.3-2.3v-46.08l1.79-6.91c0,8.02-1.71,13.95-5.12,17.79
						c-3.42,3.84-9.22,5.76-17.41,5.76h-17.66c-9.73,0-16.9-1.92-21.5-5.76c-4.61-3.84-6.91-10.62-6.91-20.35V150.52h20.22v108.29
						c0,1.54,0.85,2.3,2.56,2.3h44.03V150.52h19.97l0.26,147.46c0,10.41-2.48,17.75-7.42,22.02c-4.95,4.26-13.06,6.4-24.32,6.4
						h-50.94v-16.9H627.95z"/>
				</g>
			</g>
		</g>
	</g>
</g>
</svg>
